<svg width="144" height="22" viewBox="0 0 144 22" fill="none" xmlns="http://www.w3.org/2000/svg">
<g clip-path="url(#clip0_7784_342)">
<path d="M100.906 2.71819C102.775 3.15124 104.236 4.56799 104.73 6.41244C104.902 7.06468 105.573 7.45495 106.229 7.28387C106.884 7.1128 107.271 6.44452 107.099 5.79228C106.943 5.20954 106.723 4.65353 106.443 4.13494C107.706 2.8465 109.548 2.30119 111.315 2.71285C114.092 3.35974 115.827 6.13978 115.182 8.90378C114.533 11.6731 111.745 13.4 108.973 12.7584C106.964 12.2879 105.428 10.6841 105.063 8.6632C104.945 8.00027 104.306 7.55653 103.64 7.6795C102.974 7.79711 102.533 8.43332 102.651 9.10159C102.796 9.90353 103.065 10.6573 103.441 11.347C102.189 12.6248 100.342 13.1808 98.5691 12.7691C95.7921 12.1222 94.0625 9.34217 94.7071 6.57283C95.2657 4.19375 97.3927 2.58454 99.74 2.58454C100.127 2.58454 100.519 2.62731 100.911 2.71819M104.939 13.293C105.896 14.1859 107.083 14.8328 108.415 15.1428C112.502 16.0891 116.606 13.5443 117.562 9.45979C118.513 5.38062 115.961 1.2854 111.868 0.333772C109.371 -0.248967 106.782 0.462082 104.934 2.18357C103.978 1.29075 102.791 0.6492 101.459 0.339118C97.3713 -0.612511 93.2622 1.9323 92.3115 6.01682C91.3608 10.1013 93.9121 14.1966 98.0051 15.1482C98.5798 15.2818 99.1599 15.346 99.7346 15.346C101.663 15.346 103.527 14.6136 104.945 13.293M120.242 19.9117V14.8969C120.914 15.1589 121.639 15.3406 122.407 15.3406C126.607 15.3406 130.023 11.9298 130.023 7.7383C130.023 3.54686 126.602 0.130615 122.401 0.130615C120.71 0.130615 119.109 0.670585 117.771 1.69172C117.234 2.10338 117.132 2.86789 117.546 3.40251C117.959 3.93713 118.728 4.03871 119.265 3.62705C120.172 2.93204 121.257 2.5685 122.407 2.5685C125.254 2.5685 127.574 4.88342 127.574 7.72227C127.574 10.5611 125.254 12.8814 122.407 12.8814C121.692 12.8814 120.951 12.5713 120.242 12.181V11.7426C120.242 11.069 119.694 10.5183 119.018 10.5183C118.341 10.5183 117.793 11.0637 117.793 11.7426V19.901C117.793 20.5746 118.341 21.1253 119.018 21.1253C119.694 21.1253 120.242 20.58 120.242 19.901M87.5042 15.3353C83.3038 15.3353 79.8877 11.9244 79.8877 7.73296C79.8877 3.54151 83.3038 0.130615 87.5042 0.130615H87.5149C89.2015 0.130615 90.7968 0.670585 92.1342 1.69172C92.6714 2.10338 92.7734 2.86789 92.3598 3.40251C91.9463 3.93713 91.1782 4.03871 90.641 3.6324C90.4906 3.51478 90.3295 3.40786 90.1684 3.31162C90.1576 3.30628 90.1469 3.30093 90.1361 3.29558C89.3412 2.82512 88.4334 2.57919 87.5096 2.57384H87.5042C84.652 2.57384 82.337 4.88876 82.337 7.73296C82.337 10.5772 84.6574 12.8921 87.5042 12.8921C88.4334 12.8921 89.3412 12.6408 90.1308 12.1703C90.1415 12.165 90.1522 12.1596 90.163 12.1543C90.3241 12.0581 90.4853 11.9458 90.6357 11.8335C91.1728 11.4219 91.9409 11.5234 92.3545 12.0581C92.7681 12.5927 92.666 13.3625 92.1289 13.7742C90.7914 14.7953 89.1962 15.3353 87.5096 15.3353H87.4988H87.5042Z" fill="#16776A"/>
<path d="M1.79985 10.791C2.02008 12.721 4.20082 13.6031 6.35471 13.6031C8.5086 13.6031 10.7699 12.721 10.7699 10.8231C10.7699 8.53491 8.14872 8.36917 6.38157 8.14998C3.73352 7.84524 0.886733 7.38012 0.886733 4.65354C0.886733 1.92696 3.53478 0.868408 6.26877 0.868408C9.00276 0.868408 11.6508 1.99646 11.6508 4.36484H10.4369C10.4369 2.71286 8.36895 1.96973 6.29563 1.96973C4.22231 1.96973 1.96099 2.73959 2.10065 4.61612C2.10065 6.65303 5.00115 6.8455 6.54808 6.9845C9.28207 7.3427 12.1235 7.8399 12.0429 10.8124C12.0429 13.4588 9.33578 14.6991 6.32786 14.6991C3.5133 14.6991 0.806164 13.5978 0.5 10.7857H1.79985V10.791Z" fill="#16776A"/>
<path d="M19.9656 13.3785C22.7802 13.3517 25.5464 11.4752 25.5464 7.73285C25.5464 3.99048 22.6996 2.02842 19.9387 2.02842C17.1779 2.02842 14.2237 3.90494 14.2237 7.73285C14.2237 11.5607 17.1242 13.4105 19.9656 13.3785ZM19.9387 14.5921C16.4313 14.5921 12.897 12.3306 12.897 7.73285C12.897 3.13509 16.4044 0.841553 19.9119 0.841553C23.4193 0.841553 26.8731 3.15647 26.8731 7.7275C26.8731 12.2985 23.4193 14.5867 19.9441 14.5867" fill="#16776A"/>
<path d="M27.1792 1.06097C29.5265 0.590499 30.2999 1.75063 30.2999 3.64854C31.1808 1.77202 32.8674 0.836426 35.1878 0.836426C37.5082 0.836426 38.8618 2.15695 39.3022 4.0602C40.0488 1.96448 42.0362 0.836426 44.464 0.836426C47.8909 0.836426 48.8524 3.45073 48.8524 6.42859V11.1386C48.8524 12.6837 48.7127 13.6995 50.786 13.3413V14.3891C48.1326 14.9131 47.4988 13.7583 47.4988 11.3311V6.42859C47.4988 4.03347 46.7253 1.99121 44.0719 1.99121C41.3379 2.01794 39.7373 3.89447 39.7373 6.62105V14.3891H38.4106V6.62105C38.4106 4.08694 37.6103 2.01794 34.8494 2.01794C32.0886 2.01794 30.3751 3.86239 30.3751 6.62105V14.3891H29.0484V5.11341C29.0484 2.69157 29.1612 1.83617 27.1685 2.05537V1.06097H27.1792Z" fill="#16776A"/>
<path d="M58.0266 13.3785C60.8412 13.3518 63.602 11.4752 63.602 7.73287C63.602 3.99051 60.7606 2.02844 57.9944 2.02844C55.2282 2.02844 52.2793 3.90497 52.2793 7.73287C52.2793 11.5608 55.1798 13.4106 58.0213 13.3785M57.9944 14.5921C54.4869 14.5921 50.9526 12.3306 50.9526 7.73287C50.9526 3.13511 54.4601 0.846924 57.9675 0.846924C61.475 0.846924 64.9287 3.16184 64.9287 7.73287C64.9287 12.3039 61.475 14.5921 57.9998 14.5921" fill="#16776A"/>
<path d="M67.0289 10.7911C67.2491 12.7211 69.4298 13.6032 71.5837 13.6032C73.7376 13.6032 75.9989 12.7211 75.9989 10.8231C75.9989 8.53496 73.3777 8.36922 71.6106 8.15003C68.9625 7.84529 66.1157 7.38017 66.1157 4.65359C66.1157 1.92701 68.7638 0.87915 71.5031 0.87915C74.2425 0.87915 76.8852 2.00721 76.8852 4.37559H75.6713C75.6713 2.7236 73.6033 1.98047 71.53 1.98047C69.4567 1.98047 67.1954 2.75033 67.3296 4.62686C67.3296 6.66377 70.2301 6.85624 71.7771 6.99524C74.5111 7.35344 77.3525 7.85064 77.2719 10.8231C77.2719 13.4695 74.5648 14.7099 71.5569 14.7099C68.7423 14.7099 66.0352 13.6085 65.729 10.7964H67.0289V10.7911Z" fill="#16776A"/>
<path d="M138.07 4.47705C137.012 4.47705 136.029 4.78179 135.196 5.30572C136.727 6.73316 138.236 8.26218 139.719 9.89813C138.236 11.5341 136.727 13.0684 135.196 14.4905C136.029 15.0145 137.012 15.3192 138.07 15.3192C141.072 15.3192 143.505 12.892 143.505 9.89813C143.505 6.90424 141.072 4.47705 138.07 4.47705Z" fill="#16776A"/>
<path d="M133.547 12.908C135.212 12.908 136.555 11.5608 136.555 9.89811C136.555 8.23543 135.207 6.89353 133.547 6.88818C132.972 7.74893 132.634 8.78075 132.634 9.89811C132.634 11.0155 132.972 12.0473 133.547 12.908Z" fill="#16776A"/>
</g>
<defs>
<clipPath id="clip0_7784_342">
<rect width="143" height="21" fill="white" transform="translate(0.5 0.130615)"/>
</clipPath>
</defs>
</svg>
